Coordinates
version=1
nRows=14
nColumns=24
inDegrees=yes

Units are S.I. units (second, meters, Newtons, ...)
Angles are in degrees.

endheader
time	pelvis_tilt	pelvis_list	pelvis_rotation	pelvis_tx	pelvis_ty	pelvis_tz	hip_flexion_r	hip_adduction_r	hip_rotation_r	knee_angle_r	ankle_angle_r	subtalar_angle_r	mtp_angle_r	hip_flexion_l	hip_adduction_l	hip_rotation_l	knee_angle_l	ankle_angle_l	subtalar_angle_l	mtp_angle_l	lumbar_extension	lumbar_bending	lumbar_rotation
      5.73000000	      2.44162248	     -3.80972720	    -14.34776091	      1.42970272	      0.66786363	     -0.19583559	    -17.39681733	      1.66683434	      7.16193591	    -16.52257502	     12.30014492	     -5.88073771	      0.00000000	     20.32908544	     -6.29159758	     -6.40601028	    -16.23056006	     -8.54273411	    -18.62122709	      0.00000000	    -14.60829640	     -0.45949517	     14.63480283
      5.74000000	      2.62058379	     -3.06994451	    -13.61447877	      1.44334411	      0.66805583	     -0.19870951	    -17.29228696	      0.71064732	      6.58724313	    -18.64589701	     10.19951027	     -6.06545497	      0.00000000	     19.54710195	     -4.65330507	     -5.49229986	    -17.08328864	     -5.93973188	    -19.40282778	      0.00000000	    -13.78955930	     -0.74346381	     13.25634389
      5.75000000	      2.83517666	     -2.33966582	    -12.85867661	      1.45673707	      0.66848416	     -0.20153912	    -17.07806435	     -0.15446770	      6.17185806	    -20.92728804	      7.27142970	     -6.90826871	      0.00000000	     18.69496127	     -3.06311174	     -4.69921785	    -17.81727728	     -3.50894415	    -19.78712406	      0.00000000	    -13.08550386	     -1.10763671	     12.01915946
      5.76000000	      2.98206321	     -1.48581199	    -12.10908025	      1.46979007	      0.66902383	     -0.20436166	    -16.46357329	     -1.10212105	      5.56986616	    -23.62774795	      4.11572564	     -7.56007198	      0.00000000	     17.89406997	     -1.40449524	     -3.98995607	    -18.37487040	     -1.61390655	    -20.19470411	      0.00000000	    -12.36543478	     -1.66422593	     10.79602448
      5.77000000	      3.08687822	     -0.73184622	    -11.43945495	      1.48230499	      0.66974821	     -0.20700035	    -15.53581261	     -1.86439112	      5.28331464	    -26.64231287	      0.06767684	     -8.94500837	      0.00000000	     17.09123323	      0.04515886	     -3.40215163	    -18.81455237	      0.06246006	    -20.20338906	      0.00000000	    -11.75665573	     -2.19211201	      9.83972290
      5.78000000	      3.15452387	     -0.00628740	    -10.77964157	      1.49419810	      0.67053300	     -0.20948395	    -14.20811633	     -2.51475415	      5.09715201	    -30.12072543	     -4.23110992	    -10.47861736	      0.00000000	     16.38280268	      1.34653278	     -3.07908090	    -19.28237826	      1.62124966	    -19.81678181	      0.00000000	    -11.29215525	     -2.77299072	      8.88120628
      5.79000000	      3.17615282	      0.65643600	    -10.17332231	      1.50540034	      0.67131228	     -0.21173506	    -12.45523169	     -3.00794682	      5.11498930	    -34.07636086	     -8.61853025	    -12.20618516	      0.00000000	     15.74151154	      2.45191999	     -3.02552477	    -19.73102269	      3.17172311	    -18.96551714	      0.00000000	    -10.99028727	     -3.36603953	      7.98108871
      5.80000000	      3.15465037	      1.28606967	     -9.63029668	      1.51590100	      0.67197694	     -0.21373748	    -10.27563432	     -3.38226396	      5.27860658	    -38.49167385	    -12.70758386	    -13.97745897	      0.00000000	     15.15050294	      3.40303416	     -3.23011837	    -20.12269909	      4.74894333	    -17.72538291	      0.00000000	    -10.86069207	     -3.99718994	      7.11476698
      5.81000000	      3.11325174	      1.94169489	     -9.15516433	      1.52575723	      0.67244829	     -0.21550737	     -7.73853435	     -3.71277545	      5.53848197	    -43.25081977	    -16.19031563	    -15.72466501	      0.00000000	     14.55359282	      4.29839890	     -3.61132655	    -20.37768973	      6.25373094	    -16.35620326	      0.00000000	    -10.91370338	     -4.72422877	      6.23575388
      5.82000000	      3.09503386	      2.65120745	     -8.72849416	      1.53508123	      0.67272816	     -0.21708157	     -4.99345872	     -4.03157091	      5.87686750	    -48.13622451	    -18.91883080	    -17.51502380	      0.00000000	     13.86457357	      5.21815023	     -4.03434602	    -20.42005846	      7.60595927	    -15.05386834	      0.00000000	    -11.17494225	     -5.56563460	      5.29026291
      5.83000000	      3.12868610	      3.37973792	     -8.31090192	      1.54400311	      0.67287669	     -0.21853517	     -2.18869722	     -4.30982686	      6.25779964	    -52.91133283	    -20.86841669	    -19.40767673	      0.00000000	     13.02331019	      6.17185607	     -4.34721625	    -20.22656343	      8.80199442	    -13.90471517	      0.00000000	    -11.65315810	     -6.45792791	      4.27639729
      5.84000000	      3.23416027	      4.08684955	     -7.85008930	      1.55263892	      0.67298416	     -0.21993933	      0.55275564	     -4.51329596	      6.63147980	    -57.38261303	    -21.95827242	    -21.40554373	      0.00000000	     12.01213372	      7.14403796	     -4.45993838	    -19.83657926	      9.84054010	    -12.99531874	      0.00000000	    -12.35015679	     -7.33073449	      3.15852605
      5.85000000	      3.46107446	      4.75863270	     -7.29233326	      1.56112653	      0.67320726	     -0.22138856	      3.10340519	     -4.66540147	      6.92564403	    -61.41296202	    -21.88488581	    -23.12832663	      0.00000000	     10.73270921	      8.16217487	     -4.15727512	    -19.19653309	     10.62620217	    -12.43819401	      0.00000000	    -13.28913227	     -8.13820347	      1.89517888
      5.86000000	      3.64377551	      5.27825669	     -6.64530148	      1.56944867	      0.67346981	     -0.22280679	      5.59791968	     -4.59685037	      7.18742359	    -64.90928228	    -21.20293752	    -25.06923934	      0.00000000	      9.49064710	      8.99633830	     -3.79224808	    -18.59888858	     11.35750187	    -11.94856797	      0.00000000	    -14.26682817	     -8.72559218	      0.55876160
